<svg width="24" height="24" viewBox="0 0 24 24" fill="none" xmlns="http://www.w3.org/2000/svg">
<rect width="24" height="24" rx="4" fill="#6D6D6D"/>
<path d="M17.4441 19H7.72184C7.07751 19 6.55518 18.4777 6.55518 17.8333M6.55518 17.8333V7.33333C6.55518 6.04467 7.59984 5 8.88851 5H16.6663C17.0958 5 17.4441 5.34822 17.4441 5.77778V16.6667H7.72184C7.07751 16.6667 6.55518 17.189 6.55518 17.8333Z" stroke="white" stroke-width="1.5" stroke-linecap="round" strokeLinejoin="round"/>
<path d="M10.2233 12.9871C10.3025 12.7552 10.636 12.183 11.9995 12.183C13.3629 12.183 13.6965 12.7552 13.7757 12.9871C13.7929 13.0375 13.7533 13.083 13.7 13.083H10.2989C10.2457 13.083 10.2061 13.0375 10.2233 12.9871Z" fill="white"/>
<path d="M12.6745 9.25801C12.6745 9.6308 12.3723 9.93301 11.9995 9.93301C11.6267 9.93301 11.3245 9.6308 11.3245 9.25801M12.6745 9.25801C12.6745 8.88522 12.3723 8.58301 11.9995 8.58301C11.6267 8.58301 11.3245 8.88522 11.3245 9.25801M12.6745 9.25801H11.3245M11.9995 12.183C10.636 12.183 10.3025 12.7552 10.2233 12.9871C10.2061 13.0375 10.2457 13.083 10.2989 13.083H13.7C13.7533 13.083 13.7929 13.0375 13.7757 12.9871C13.6965 12.7552 13.3629 12.183 11.9995 12.183Z" stroke="white" stroke-width="1.73571" stroke-linecap="round" strokeLinejoin="round"/>
</svg>
