<svg width="24" height="24" viewBox="0 0 24 24" fill="none" xmlns="http://www.w3.org/2000/svg">
<rect width="24" height="24" rx="4" fill="black"/>
<path d="M9.35151 5.39466L9.82446 5.97675L9.35151 5.39466ZM11.2924 4.09716L11.0903 3.37492L11.2924 4.09716ZM14.6485 5.39466L14.1755 5.97675L14.6485 5.39466ZM12.7076 4.09716L12.9097 3.37492L12.7076 4.09716ZM6.43327 19.1442L6.09278 19.8124L6.43327 19.1442ZM5.28611 17.997L4.61785 18.3375L5.28611 17.997ZM18.7139 17.997L19.3821 18.3375L18.7139 17.997ZM17.5667 19.1442L17.9072 19.8124L17.5667 19.1442ZM18.9073 9.48827L18.1838 9.68581L18.9073 9.48827ZM17.4485 7.66966L16.9755 8.25175L17.4485 7.66966ZM18.5085 8.65034L19.118 8.21338L18.5085 8.65034ZM5.0927 9.48827L5.81621 9.68581L5.0927 9.48827ZM6.55151 7.66966L6.07857 7.08758L6.55151 7.66966ZM5.49153 8.65034L4.88196 8.21338L5.49153 8.65034ZM8.5 15.1803C8.08579 15.1803 7.75 15.5161 7.75 15.9303C7.75 16.3445 8.08579 16.6803 8.5 16.6803V15.1803ZM15.5 16.6803C15.9142 16.6803 16.25 16.3445 16.25 15.9303C16.25 15.5161 15.9142 15.1803 15.5 15.1803V16.6803ZM18.25 10.9293V15.2303H19.75V10.9293H18.25ZM14.8 18.6803H9.2V20.1803H14.8V18.6803ZM5.75 15.2303V10.9293H4.25V15.2303H5.75ZM7.02446 8.25175L9.82446 5.97675L8.87857 4.81258L6.07857 7.08758L7.02446 8.25175ZM14.1755 5.97675L16.9755 8.25175L17.9214 7.08758L15.1214 4.81258L14.1755 5.97675ZM9.82446 5.97675C10.305 5.58628 10.6343 5.31935 10.9079 5.12873C11.1738 4.94352 11.3447 4.86137 11.4946 4.8194L11.0903 3.37492C10.7154 3.47985 10.3879 3.66291 10.0505 3.89796C9.72086 4.1276 9.34208 4.43597 8.87857 4.81258L9.82446 5.97675ZM15.1214 4.81258C14.6579 4.43597 14.2791 4.1276 13.9495 3.89796C13.6121 3.66291 13.2846 3.47985 12.9097 3.37492L12.5054 4.8194C12.6553 4.86137 12.8262 4.94352 13.0921 5.12873C13.3657 5.31935 13.695 5.58628 14.1755 5.97675L15.1214 4.81258ZM11.4946 4.8194C11.8252 4.72687 12.1748 4.72687 12.5054 4.8194L12.9097 3.37492C12.3147 3.20836 11.6853 3.20836 11.0903 3.37492L11.4946 4.8194ZM9.2 18.6803C8.45256 18.6803 7.93708 18.6797 7.53698 18.647C7.14564 18.615 6.93118 18.5561 6.77377 18.4759L6.09278 19.8124C6.49689 20.0183 6.93073 20.1025 7.41483 20.142C7.89018 20.1808 8.47731 20.1803 9.2 20.1803V18.6803ZM4.25 15.2303C4.25 15.953 4.24942 16.5401 4.28825 17.0154C4.32781 17.4995 4.41195 17.9334 4.61785 18.3375L5.95436 17.6565C5.87416 17.4991 5.81525 17.2846 5.78327 16.8933C5.75058 16.4932 5.75 15.9777 5.75 15.2303H4.25ZM6.77377 18.4759C6.42096 18.2961 6.13413 18.0093 5.95436 17.6565L4.61785 18.3375C4.94143 18.9725 5.45774 19.4888 6.09278 19.8124L6.77377 18.4759ZM18.25 15.2303C18.25 15.9777 18.2494 16.4932 18.2167 16.8933C18.1848 17.2846 18.1258 17.4991 18.0456 17.6565L19.3821 18.3375C19.5881 17.9334 19.6722 17.4995 19.7117 17.0154C19.7506 16.5401 19.75 15.953 19.75 15.2303H18.25ZM14.8 20.1803C15.5227 20.1803 16.1098 20.1808 16.5852 20.142C17.0693 20.1025 17.5031 20.0183 17.9072 19.8124L17.2262 18.4759C17.0688 18.5561 16.8544 18.615 16.463 18.647C16.0629 18.6797 15.5474 18.6803 14.8 18.6803V20.1803ZM18.0456 17.6565C17.8659 18.0093 17.579 18.2961 17.2262 18.4759L17.9072 19.8124C18.5423 19.4888 19.0586 18.9725 19.3821 18.3375L18.0456 17.6565ZM19.75 10.9293C19.75 10.2362 19.7562 9.74994 19.6308 9.29072L18.1838 9.68581C18.2438 9.90558 18.25 10.1537 18.25 10.9293H19.75ZM16.9755 8.25175C17.5776 8.74088 17.7662 8.90214 17.8989 9.08729L19.118 8.21338C18.8407 7.82648 18.4594 7.52464 17.9214 7.08758L16.9755 8.25175ZM19.6308 9.29072C19.5252 8.904 19.3516 8.53919 19.118 8.21338L17.8989 9.08729C18.0287 9.2683 18.1251 9.47097 18.1838 9.68581L19.6308 9.29072ZM5.75 10.9293C5.75 10.1537 5.75621 9.90558 5.81621 9.68581L4.36918 9.29072C4.24379 9.74994 4.25 10.2362 4.25 10.9293H5.75ZM6.07857 7.08758C5.54064 7.52464 5.1593 7.82648 4.88196 8.21338L6.10109 9.08729C6.23382 8.90214 6.42245 8.74088 7.02446 8.25175L6.07857 7.08758ZM5.81621 9.68581C5.87487 9.47097 5.97134 9.2683 6.10109 9.08729L4.88196 8.21338C4.64841 8.53919 4.47477 8.904 4.36918 9.29072L5.81621 9.68581ZM8.5 16.6803H15.5V15.1803H8.5V16.6803Z" fill="white"/>
</svg>
