<svg width="55" height="61" viewBox="0 0 55 61" fill="none" xmlns="http://www.w3.org/2000/svg">
<path fill-rule="evenodd" clip-rule="evenodd" d="M24.8003 28.6901L23.6409 35.6566L24.3276 34.9559L23.4301 40.4721H17.7031L21.685 16H27.412L25.3471 28.6901H24.8003ZM30.549 30.1209L38.2334 22.118H31.7452L25.585 28.6901H25.3471L24.3276 34.9559L25.7211 33.5341L28.8759 40.4721H35.4929L30.549 30.1209Z" fill="#0A0A0A"/>
<path d="M24.8003 28.6901L23.6409 35.6566L24.3276 34.9559L25.3471 28.6901H24.8003Z" fill="#0A0A0A"/>
<path fill-rule="evenodd" clip-rule="evenodd" d="M23.4304 40.4721H17.7035L21.6854 16H27.4123L25.3475 28.6901H25.5853L31.7456 22.118H38.2337L30.5494 30.1209L35.4933 40.4721H28.8762L25.7214 33.5341L24.3279 34.9559L23.4304 40.4721ZM17.7035 44.4721C15.2379 44.4721 13.3594 42.2633 13.7554 39.8297L17.7373 15.3576C18.0523 13.4219 19.7242 12 21.6854 12H27.4123C29.8778 12 31.7563 14.2089 31.3604 16.6424L31.3091 16.9574C31.2101 17.5658 31.6798 18.118 32.2961 18.118H38.2337C41.7583 18.118 43.5602 22.3461 41.119 24.8885L35.8311 30.3956C35.5427 30.6959 35.4706 31.1435 35.65 31.5192L39.1027 38.7482C40.3707 41.403 38.4353 44.4721 35.4933 44.4721H17.7035Z" fill="white"/>
<path fill-rule="evenodd" clip-rule="evenodd" d="M23.5237 28.7951L22.0955 37.3766L22.9415 36.5134L21.8358 43.3085H14.7812L19.6863 13.1631H26.7409L24.1973 28.7951H23.5237ZM30.6052 30.5576L40.071 20.6994H32.0787L24.4903 28.7951H24.1973L22.9415 36.5134L24.658 34.7621L28.5442 43.3085H36.6952L30.6052 30.5576Z" fill="#0A0A0A"/>
<path d="M23.5237 28.7951L22.0955 37.3766L22.9415 36.5134L24.1973 28.7951H23.5237Z" fill="#0A0A0A"/>
<g filter="url(#filter0_d_2107_1498)">
<path fill-rule="evenodd" clip-rule="evenodd" d="M21.8357 43.309H14.7811L19.6862 13.1636H26.7407L24.1972 28.7957H24.4902L32.0786 20.7H40.0709L30.6051 30.5581L36.6951 43.309H28.5441L24.6579 34.7626L22.9414 36.514L21.8357 43.309ZM14.7811 48.2363C11.744 48.2363 9.43004 45.5154 9.9178 42.5177L14.8228 12.3723C15.2108 9.98783 17.2703 8.23633 19.6862 8.23633H26.7407C29.7778 8.23633 32.0918 10.9573 31.6041 13.955L31.5409 14.343C31.419 15.0924 31.9975 15.7727 32.7568 15.7727H40.0709C44.4126 15.7727 46.6321 20.9809 43.625 24.1127L37.1112 30.8965C36.756 31.2664 36.6671 31.8177 36.8882 32.2805L41.1413 41.1855C42.7032 44.4557 40.3191 48.2363 36.6951 48.2363H14.7811Z" fill="white"/>
</g>
<defs>
<filter id="filter0_d_2107_1498" x="-0.00206375" y="0.845376" width="54.8645" height="59.7092" filterUnits="userSpaceOnUse" color-interpolation-filters="sRGB">
<feFlood flood-opacity="0" result="BackgroundImageFix"/>
<feColorMatrix in="SourceAlpha" type="matrix" values="0 0 0 0 0 0 0 0 0 0 0 0 0 0 0 0 0 0 127 0" result="hardAlpha"/>
<feOffset dy="2.46365"/>
<feGaussianBlur stdDeviation="4.9273"/>
<feComposite in2="hardAlpha" operator="out"/>
<feColorMatrix type="matrix" values="0 0 0 0 0.129412 0 0 0 0 0.129412 0 0 0 0 0.129412 0 0 0 0.12 0"/>
<feBlend mode="normal" in2="BackgroundImageFix" result="effect1_dropShadow_2107_1498"/>
<feBlend mode="normal" in="SourceGraphic" in2="effect1_dropShadow_2107_1498" result="shape"/>
</filter>
</defs>
</svg>
