<svg width="24" height="24" viewBox="0 0 24 24" fill="none" xmlns="http://www.w3.org/2000/svg">
<rect width="24" height="24" rx="4" fill="#FCBB4D"/>
<path d="M11.1317 5.49032C11.4468 4.83656 12.3867 4.83656 12.7017 5.49032L14.269 8.74238C14.3958 9.00548 14.6485 9.18721 14.9404 9.22531L18.5485 9.69623C19.2738 9.79089 19.5642 10.6759 19.0336 11.1746L16.3942 13.6554C16.1806 13.8561 16.0841 14.1502 16.1378 14.4368L16.8004 17.9799C16.9336 18.6922 16.1732 19.2392 15.5302 18.8936L12.3316 17.1748C12.0729 17.0357 11.7606 17.0357 11.5018 17.1748L8.30323 18.8936C7.66023 19.2392 6.89985 18.6922 7.03306 17.9799L7.69569 14.4368C7.7493 14.1502 7.6528 13.8561 7.43926 13.6554L4.7998 11.1746C4.2692 10.6759 4.55963 9.79089 5.28497 9.69623L8.89307 9.22531C9.18498 9.18721 9.43761 9.00548 9.56441 8.74238L11.1317 5.49032Z" fill="white"/>
</svg>
