<svg width="25" height="24" viewBox="0 0 25 24" fill="none" xmlns="http://www.w3.org/2000/svg">
<rect x="0.5" width="24" height="24" rx="4" fill="#22C55E"/>
<path d="M10.1363 8.25173C10.2781 8.25747 10.4351 8.26419 10.5844 8.59578C10.6861 8.82203 10.857 9.24333 10.9935 9.57982C11.0947 9.82914 11.177 10.0319 11.1982 10.0743C11.248 10.1738 11.2811 10.2904 11.2148 10.4231C11.2046 10.4435 11.1952 10.4627 11.1863 10.4811C11.1368 10.5822 11.1003 10.6568 11.0159 10.7552C10.9822 10.7944 10.9473 10.8368 10.9124 10.8792C10.8442 10.9621 10.7762 11.0448 10.717 11.104C10.6171 11.2032 10.5131 11.311 10.6295 11.5103C10.7458 11.7095 11.1454 12.3614 11.7375 12.8893C12.3747 13.4575 12.928 13.6974 13.2081 13.8188C13.2626 13.8424 13.3066 13.8616 13.339 13.8777C13.5383 13.9773 13.6543 13.9606 13.7706 13.8277C13.8869 13.6947 14.2681 13.2464 14.4009 13.047C14.5339 12.8477 14.6666 12.8808 14.8491 12.9473C15.0317 13.0138 16.0107 13.4955 16.21 13.5952C16.2491 13.6148 16.2858 13.6325 16.3197 13.6488C16.4583 13.7156 16.5519 13.7607 16.5919 13.8277C16.6416 13.911 16.6414 14.3094 16.4756 14.7745C16.3098 15.2395 15.4967 15.6881 15.1315 15.7212C15.0963 15.7245 15.0613 15.7286 15.0253 15.7328C14.6878 15.7724 14.2619 15.8225 12.7416 15.2229C10.869 14.4846 9.63482 12.6538 9.38156 12.2781C9.36103 12.2477 9.34695 12.2268 9.33949 12.2168L9.33713 12.2137C9.22929 12.0694 8.52637 11.1295 8.52637 10.1571C8.52637 9.24044 8.97685 8.75972 9.18429 8.53834C9.19858 8.52309 9.21171 8.50908 9.22347 8.49623C9.40589 8.2969 9.62169 8.24707 9.7545 8.24707L10.1363 8.25173Z" fill="white"/>
<path fill-rule="evenodd" clip-rule="evenodd" d="M4.53809 20.039L5.66894 15.9101C4.97031 14.6989 4.60335 13.3249 4.60503 11.9266C4.60688 7.53321 8.18218 3.95898 12.5757 3.95898C14.7077 3.96006 16.7089 4.78976 18.2139 6.29587C19.719 7.80197 20.5471 9.8039 20.5462 11.933C20.5443 16.3261 16.9685 19.9009 12.5756 19.9009H12.5721C11.2383 19.9004 9.92758 19.5658 8.76337 18.9309L4.53809 20.039ZM12.5781 5.30498C8.9238 5.30498 5.952 8.2757 5.9507 11.9272C5.9489 13.1741 6.30002 14.396 6.96347 15.4516L7.12109 15.7022L6.45172 18.1459L8.95912 17.4884L9.20124 17.6319C10.2181 18.2354 11.3841 18.5545 12.5731 18.5552H12.5756C16.2271 18.5552 19.1989 15.5842 19.2003 11.9324C19.203 11.0621 19.0331 10.1998 18.7003 9.39559C18.3676 8.59134 17.8786 7.86109 17.2617 7.24711C16.6482 6.62977 15.9184 6.14025 15.1144 5.80687C14.3105 5.47351 13.4484 5.30292 12.5781 5.30498Z" fill="white"/>
</svg>
